Coordinates
version=1
nRows=14
nColumns=24
inDegrees=yes

Units are S.I. units (second, meters, Newtons, ...)
Angles are in degrees.

endheader
time	pelvis_tilt	pelvis_list	pelvis_rotation	pelvis_tx	pelvis_ty	pelvis_tz	hip_flexion_r	hip_adduction_r	hip_rotation_r	knee_angle_r	ankle_angle_r	subtalar_angle_r	mtp_angle_r	hip_flexion_l	hip_adduction_l	hip_rotation_l	knee_angle_l	ankle_angle_l	subtalar_angle_l	mtp_angle_l	lumbar_extension	lumbar_bending	lumbar_rotation
      4.20000000	     -0.80258553	     -5.02641019	     -0.33300056	     -1.17741418	      0.93874235	      0.24544782	     11.72350880	     12.95373188	      8.62079232	    -22.95434234	     14.13647613	    -17.03147213	      0.00000000	     24.90281198	     -6.17977712	     -3.91727151	    -70.05943870	      6.65285625	    -17.26003918	      0.00000000	    -10.77628835	      2.71416197	     -7.79714801
      4.20500000	     -0.79560017	     -4.75367011	     -0.58555365	     -1.17085226	      0.93974570	      0.24574489	     10.98880800	     12.71362643	      9.09664774	    -22.51133928	     14.25643345	    -17.17797992	      0.00000000	     25.39296274	     -5.93598860	     -4.02233920	    -69.18983728	      7.56227328	    -16.40096731	      0.00000000	    -10.81464279	      2.31270206	     -7.55937645
      4.21000000	     -0.80058683	     -4.47921267	     -0.83931640	     -1.16430682	      0.94066362	      0.24602381	     10.28077453	     12.46107801	      9.55274344	    -22.08311875	     14.38769161	    -17.30768832	      0.00000000	     25.86751484	     -5.69093991	     -4.13812986	    -68.23302056	      8.40324735	    -15.61844888	      0.00000000	    -10.83982389	      1.91039348	     -7.33105590
      4.21500000	     -0.80454155	     -4.20752686	     -1.09284656	     -1.15778588	      0.94151402	      0.24629666	      9.58122719	     12.20515576	     10.02294326	    -21.66466403	     14.51693781	    -17.43410212	      0.00000000	     26.31272386	     -5.44545874	     -4.25229896	    -67.18983798	      9.16189466	    -14.92421663	      0.00000000	    -10.87044003	      1.51068445	     -7.08315987
      4.22000000	     -0.81565531	     -3.93756411	     -1.34549437	     -1.15126170	      0.94227915	      0.24655051	      8.90180270	     11.94111606	     10.47211842	    -21.25990041	     14.65604040	    -17.54711781	      0.00000000	     26.73587911	     -5.20114602	     -4.37331492	    -66.06094427	      9.83207397	    -14.33404216	      0.00000000	    -10.88942137	      1.11797415	     -6.84338980
      4.22500000	     -0.83600472	     -3.67322250	     -1.58959431	     -1.14475363	      0.94294366	      0.24676348	      8.25135983	     11.67232169	     10.89691800	    -20.87847264	     14.80548155	    -17.64027667	      0.00000000	     27.14384301	     -4.95222859	     -4.48244099	    -64.85291056	     10.40906102	    -13.86068937	      0.00000000	    -10.90008181	      0.73826846	     -6.61161927
      4.23000000	     -0.87038109	     -3.41790708	     -1.82302393	     -1.13821365	      0.94348459	      0.24698192	      7.62877199	     11.40591844	     11.27115395	    -20.51029526	     14.98425112	    -17.72400722	      0.00000000	     27.54083302	     -4.71993836	     -4.60528930	    -63.57004874	     10.90465247	    -13.49603599	      0.00000000	    -10.88385200	      0.36803828	     -6.41579658
      4.23500000	     -0.88847591	     -3.17366787	     -2.06256240	     -1.13170874	      0.94396099	      0.24715425	      7.00605310	     11.14635012	     11.68274213	    -20.17309009	     15.15597261	    -17.80556947	      0.00000000	     27.88936502	     -4.48130185	     -4.70325560	    -62.20561086	     11.31304027	    -13.25343167	      0.00000000	    -10.89514164	      0.01601809	     -6.16762549
      4.24000000	     -0.97387728	     -2.95932398	     -2.22094286	     -1.12519927	      0.94419969	      0.24723095	      6.48765964	     10.90562015	     11.94515047	    -19.86945210	     15.35267011	    -17.86469756	      0.00000000	     28.30797217	     -4.23725321	     -4.71008930	    -60.79408667	     11.68530155	    -13.06966605	      0.00000000	    -10.82632064	     -0.29067244	     -6.06110541
      4.24500000	     -0.97247893	     -2.72994499	     -2.50207577	     -1.11860089	      0.94450785	      0.24744857	      5.85985431	     10.65765067	     12.37785575	    -19.56962169	     15.56882067	    -17.94455606	      0.00000000	     28.56126117	     -4.05091258	     -4.89445329	    -59.27363520	     11.92732751	    -13.05334390	      0.00000000	    -10.83473220	     -0.62230881	     -5.77696096
      4.25000000	     -0.98111588	     -2.54228816	     -2.72007554	     -1.11207504	      0.94467154	      0.24754502	      5.26735101	     10.44434897	     12.76609584	    -19.29665608	     15.76669527	    -18.03876259	      0.00000000	     28.82031957	     -3.85267177	     -4.94915750	    -57.70616761	     12.13209008	    -13.08720308	      0.00000000	    -10.85594630	     -0.89818953	     -5.53456722
      4.25500000	     -1.00922583	     -2.37063491	     -2.92506221	     -1.10550068	      0.94469402	      0.24762744	      4.70945324	     10.24542791	     13.11986299	    -19.05020600	     15.98360651	    -18.13229439	      0.00000000	     29.07228147	     -3.67040505	     -4.99570243	    -56.07635333	     12.30022305	    -13.17135869	      0.00000000	    -10.84167346	     -1.15297936	     -5.33144642
      4.26000000	     -1.09255221	     -2.22644322	     -3.06485242	     -1.09892582	      0.94449160	      0.24761220	      4.23793161	     10.07316474	     13.39339374	    -18.84653738	     16.23021544	    -18.21911342	      0.00000000	     29.37467162	     -3.47988420	     -4.93706608	    -54.40965138	     12.48045308	    -13.21508248	      0.00000000	    -10.76532627	     -1.35825776	     -5.20292639
      4.26500000	     -1.08912836	     -2.07457664	     -3.32046639	     -1.09230589	      0.94436934	      0.24774821	      3.66019113	      9.89279034	     13.78942755	    -18.63568221	     16.47270368	    -18.31780692	      0.00000000	     29.51852931	     -3.35095097	     -5.05188690	    -52.63823558	     12.53868932	    -13.44204362	      0.00000000	    -10.77792363	     -1.59854335	     -4.95739862
